<?xml version="1.0" encoding="UTF-8"?>
<svg id="Layer_2" data-name="Layer 2" xmlns="http://www.w3.org/2000/svg" viewBox="0 0 310.27 183.52">
  <defs>
    <style>
      .cls-1 {
        fill: #003c64;
      }
    </style>
  </defs>
  <g id="Layer_1-2" data-name="Layer 1">
    <g>
      <path class="cls-1" d="M169.63,95.39v8.36c0,9.4-4.05,10.67-8.01,10.67s-8.08-1.27-8.08-10.67v-8.36c0-8.88,4.31-10.01,8.08-10.01s8.01,1.13,8.01,10.01Z"/>
      <path class="cls-1" d="M0,0v183.52h310.27V0H0ZM82.06,83.84l-29.7,14.77,29.69,14.77-3.04,7.87-37.7-19.34v-6.6l37.72-19.34,3.03,7.86h0ZM133.19,121.72h-8.5v-33.63l-7.35,33.63h-7.11l-7.35-33.62v33.62h-8.5v-59.72h10.74l8.67,39.91,8.66-39.91h10.74v59.72ZM178.94,121.72h-7.44l-.39-2.34c-2.35,2.11-5.65,3.14-9.97,3.14-7.35,0-16.11-3.09-16.11-17.8v-10.45c0-10.96,5.72-17,16.11-17,3.85,0,6.96.88,9.29,2.62v-17.89h8.51v59.72ZM196.65,124.93h-9.07l23.75-61.73h9.16l-23.84,61.73ZM270.11,101.91l-37.7,19.34-3.04-7.87,29.69-14.77-29.7-14.77h0s3.04-7.87,3.04-7.87l37.71,19.34v6.6Z"/>
    </g>
  </g>
</svg>